<svg width="17" height="19" viewBox="0 0 17 19" fill="none" xmlns="http://www.w3.org/2000/svg">
<path d="M0 11.51V0.420013H4.7V11.51H0Z" fill="white"/>
<path d="M11.42 0.420013V11.98C11.42 12.17 11.39 12.37 11.31 12.55C11.23 12.73 11.11 12.88 10.96 13.01C10.78 13.16 10.59 13.28 10.38 13.38C9.83997 13.61 9.25997 13.75 8.67997 13.77C8.16997 13.8 7.64997 13.79 7.13997 13.81H6.96997V18.47H7.50997C8.67997 18.47 9.83997 18.35 10.98 18.1C11.88 17.91 12.74 17.58 13.53 17.12C14.55 16.49 15.3 15.64 15.72 14.52C15.99 13.77 16.13 12.97 16.12 12.17V0.420013H11.43" fill="white"/>
<path d="M4.69 13.79H0V18.46H4.69V13.79Z" fill="#FE4331"/>
</svg>
